<svg width="120" height="34" viewBox="0 0 120 34" fill="none" xmlns="http://www.w3.org/2000/svg">
<path fill-rule="evenodd" clip-rule="evenodd" d="M16.7004 0C2.94762 0 0 2.94762 0 16.7004C0 30.4532 2.94762 33.4008 16.7004 33.4008C30.4532 33.4008 33.4008 30.4532 33.4008 16.7004C33.4008 2.94762 30.4532 0 16.7004 0ZM12.291 10.6184V21.9691H17.5994C19.7882 21.9691 21.4428 20.5589 21.4428 18.5983C21.4428 17.8239 21.1947 17.1822 20.7451 16.6878C20.436 16.3477 20.0315 16.0772 19.547 15.881C19.8791 15.5127 20.0884 15.0831 20.1809 14.5921C20.218 14.3953 20.2363 14.1886 20.2363 13.972C20.2363 11.9943 18.5817 10.6184 16.3929 10.6184H12.291ZM22.1106 16.0987C21.9196 15.831 21.7003 15.5926 21.4586 15.382C21.6039 14.9341 21.6726 14.4606 21.6726 13.972C21.6726 11.0105 19.1675 9.18526 16.3929 9.18526H10.8548V23.4023H17.5994C20.3895 23.4023 22.879 21.5292 22.879 18.5983C22.879 17.676 22.6256 16.82 22.1106 16.0987ZM16.2033 15.1071C16.336 15.1071 16.4588 15.0932 16.571 15.0666C17.0565 14.9514 17.3409 14.5986 17.3409 14.1096C17.3409 13.6206 17.0565 13.2679 16.571 13.1527C16.4588 13.1261 16.336 13.1121 16.2033 13.1121H15.1348V15.1071H16.2033ZM17.4898 18.0369C17.4898 18.0369 17.4878 18.0375 17.4835 18.0381C17.4875 18.0371 17.4897 18.0368 17.4898 18.0369ZM17.4835 18.9177C17.4878 18.9184 17.4898 18.9189 17.4898 18.919C17.4897 18.919 17.4875 18.9187 17.4835 18.9177ZM18.5473 18.4779C18.5473 19.1486 18.1164 19.4754 17.4098 19.4754H15.1348V17.4804H17.4098C18.1164 17.4804 18.5473 17.8072 18.5473 18.4779Z" fill="white"/>
<path d="M43.0316 22.4556H46.56C47.0641 22.4556 47.5308 22.3926 47.9602 22.2665C48.3943 22.1359 48.7676 21.9445 49.0803 21.6925C49.393 21.4451 49.6381 21.1371 49.8154 20.7684C49.9928 20.3997 50.0791 19.9726 50.0745 19.4872C50.0745 19.2119 50.0348 18.9505 49.9554 18.7031C49.8808 18.4511 49.7688 18.2224 49.6194 18.017C49.4747 17.8257 49.295 17.6553 49.0803 17.506C48.8656 17.352 48.6066 17.2353 48.3032 17.1559V17.1419C48.5086 17.0579 48.6883 16.9646 48.8423 16.8619C49.001 16.7546 49.1433 16.6309 49.2694 16.4909C49.4467 16.2995 49.5821 16.0801 49.6754 15.8328C49.7734 15.5808 49.8248 15.3101 49.8294 15.0207C49.8294 14.5446 49.7384 14.1339 49.5564 13.7885C49.379 13.4385 49.1317 13.1515 48.8143 12.9274C48.4969 12.7034 48.1212 12.5377 47.6872 12.4304C47.2531 12.3184 46.7887 12.2624 46.294 12.2624H43.0316V22.4556ZM44.7258 17.849H46.6581C46.9334 17.8537 47.1784 17.8957 47.3931 17.975C47.6078 18.0497 47.7899 18.1571 47.9392 18.2971C48.0886 18.4371 48.2006 18.6074 48.2752 18.8081C48.3499 19.0042 48.3873 19.2305 48.3873 19.4872C48.3873 19.7299 48.3406 19.9516 48.2472 20.1523C48.1586 20.3483 48.0302 20.514 47.8622 20.6494C47.7082 20.78 47.5215 20.8827 47.3021 20.9574C47.0828 21.0321 46.8401 21.0694 46.574 21.0694H44.7258V17.849ZM44.7258 16.5679V13.6555H46.315C46.6044 13.6602 46.8681 13.6952 47.1061 13.7605C47.3441 13.8212 47.5425 13.9216 47.7012 14.0616C47.8412 14.1736 47.9485 14.3183 48.0232 14.4956C48.1026 14.6683 48.1422 14.8737 48.1422 15.1117C48.1422 15.3357 48.1002 15.5341 48.0162 15.7068C47.9322 15.8795 47.8179 16.0265 47.6732 16.1478C47.5145 16.2832 47.3185 16.3859 47.0851 16.4559C46.8564 16.5259 46.6044 16.5632 46.329 16.5679H44.7258ZM51.3906 18.5981V18.7451C51.3906 19.3005 51.47 19.8116 51.6286 20.2783C51.7873 20.745 52.0184 21.1511 52.3217 21.4965C52.6204 21.8418 52.9891 22.1125 53.4278 22.3085C53.8666 22.5046 54.3636 22.6026 54.919 22.6026C55.4698 22.6026 55.9621 22.5046 56.3962 22.3085C56.8349 22.1125 57.2036 21.8418 57.5023 21.4965C57.801 21.1511 58.0297 20.745 58.1884 20.2783C58.3471 19.8116 58.4264 19.3005 58.4264 18.7451V18.5981C58.4264 18.0474 58.3471 17.5387 58.1884 17.0719C58.0297 16.6005 57.801 16.1922 57.5023 15.8468C57.199 15.5014 56.8279 15.2307 56.3892 15.0347C55.9551 14.8387 55.4604 14.7407 54.905 14.7407C54.3496 14.7407 53.8549 14.8387 53.4208 15.0347C52.9868 15.2307 52.6204 15.5014 52.3217 15.8468C52.0184 16.1922 51.7873 16.6005 51.6286 17.0719C51.47 17.5387 51.3906 18.0474 51.3906 18.5981ZM53.0638 18.7451V18.5981C53.0638 18.2667 53.0988 17.9494 53.1688 17.646C53.2435 17.3426 53.3555 17.0766 53.5049 16.8479C53.6589 16.6192 53.8502 16.4372 54.0789 16.3018C54.3123 16.1665 54.5877 16.0988 54.905 16.0988C55.2271 16.0988 55.5024 16.1665 55.7311 16.3018C55.9645 16.4372 56.1558 16.6192 56.3052 16.8479C56.4545 17.0766 56.5666 17.3426 56.6412 17.646C56.7159 17.9494 56.7532 18.2667 56.7532 18.5981V18.7451C56.7532 19.0858 56.7159 19.4079 56.6412 19.7112C56.5712 20.0146 56.4615 20.2806 56.3122 20.5093C56.1628 20.738 55.9715 20.9201 55.7381 21.0554C55.5048 21.1861 55.2317 21.2514 54.919 21.2514C54.597 21.2514 54.3193 21.1861 54.0859 21.0554C53.8526 20.9201 53.6589 20.738 53.5049 20.5093C53.3555 20.2806 53.2435 20.0146 53.1688 19.7112C53.0988 19.4079 53.0638 19.0858 53.0638 18.7451ZM66.9674 18.7451V18.5981C66.9674 18.1687 66.9278 17.7627 66.8484 17.38C66.7738 16.9973 66.6617 16.6495 66.5124 16.3368C66.4004 16.1128 66.2697 15.9075 66.1203 15.7208C65.9757 15.5294 65.81 15.3684 65.6233 15.2377C65.4039 15.079 65.1566 14.9577 64.8812 14.8737C64.6105 14.785 64.3118 14.7407 63.9851 14.7407C63.7377 14.7407 63.5067 14.7663 63.292 14.8177C63.082 14.8643 62.8883 14.9367 62.7109 15.0347C62.5756 15.1094 62.4496 15.1957 62.3329 15.2937C62.2162 15.3917 62.1089 15.5014 62.0109 15.6228V11.7023H60.3377V22.4556H61.8498L61.9269 21.6295C62.0109 21.7321 62.0972 21.8278 62.1859 21.9165C62.2792 22.0005 62.3772 22.0799 62.4799 22.1545C62.6806 22.2992 62.907 22.4089 63.159 22.4836C63.411 22.5582 63.6911 22.5956 63.9991 22.5956C64.3025 22.5956 64.5825 22.5559 64.8392 22.4766C65.1006 22.4019 65.3363 22.2945 65.5463 22.1545C65.8076 21.9818 66.0317 21.7648 66.2184 21.5035C66.405 21.2421 66.5544 20.9504 66.6664 20.6284C66.7644 20.3577 66.8391 20.0636 66.8904 19.7462C66.9418 19.4289 66.9674 19.0952 66.9674 18.7451ZM65.2942 18.5981V18.7451C65.2942 18.9552 65.2826 19.1582 65.2592 19.3542C65.2359 19.5502 65.2009 19.7322 65.1542 19.9003C65.0982 20.1243 65.0165 20.3273 64.9092 20.5093C64.8065 20.6867 64.6735 20.8337 64.5102 20.9504C64.3888 21.0344 64.2511 21.1021 64.0971 21.1534C63.9431 21.2001 63.7704 21.2234 63.579 21.2234C63.369 21.2234 63.1777 21.1978 63.005 21.1464C62.837 21.0904 62.6876 21.0157 62.5569 20.9224C62.4402 20.8337 62.3352 20.7334 62.2419 20.6214C62.1532 20.5047 62.0762 20.3763 62.0109 20.2363V17.0999C62.0669 16.9786 62.1322 16.8666 62.2069 16.7639C62.2862 16.6565 62.3749 16.5632 62.4729 16.4839C62.6083 16.3672 62.767 16.2785 62.949 16.2178C63.131 16.1525 63.3364 16.1198 63.565 16.1198C63.7517 16.1198 63.9198 16.1408 64.0691 16.1828C64.2185 16.2248 64.3515 16.2878 64.4682 16.3718C64.6455 16.4932 64.7855 16.6425 64.8882 16.8199C64.9955 16.9926 65.0819 17.1863 65.1472 17.401C65.1939 17.5783 65.2289 17.7697 65.2522 17.975C65.2802 18.1757 65.2942 18.3834 65.2942 18.5981ZM73.8843 22.4556H75.4034V14.8807H73.7232V20.2433C73.6579 20.3833 73.5786 20.5117 73.4852 20.6284C73.3919 20.7404 73.2845 20.8384 73.1632 20.9224C73.0185 21.0157 72.8505 21.0904 72.6591 21.1464C72.4678 21.1978 72.2507 21.2234 72.008 21.2234C71.7747 21.2234 71.5717 21.1931 71.399 21.1324C71.2263 21.0717 71.0839 20.9691 70.9719 20.8244C70.8599 20.6844 70.7782 20.4977 70.7269 20.2643C70.6755 20.0263 70.6499 19.7322 70.6499 19.3822V14.8807H68.9767V19.3682C68.9767 19.9376 69.0397 20.4277 69.1657 20.8384C69.2917 21.2444 69.4691 21.5781 69.6978 21.8395C69.9311 22.1009 70.2088 22.2945 70.5309 22.4206C70.8576 22.5419 71.2193 22.6026 71.616 22.6026C72.0687 22.6026 72.4794 22.4976 72.8481 22.2875C73.2168 22.0729 73.5296 21.7765 73.7862 21.3984L73.8843 22.4556ZM82.7683 14.7407C82.2456 14.7407 81.7672 14.862 81.3331 15.1047C80.9038 15.3474 80.535 15.6811 80.227 16.1058L80.22 15.9308L80.15 14.8807H78.5818V22.4556H80.255V17.779C80.3437 17.555 80.4534 17.3566 80.5841 17.1839C80.7147 17.0113 80.8734 16.8689 81.0601 16.7569C81.2328 16.6402 81.4312 16.5539 81.6552 16.4979C81.8792 16.4419 82.1312 16.4139 82.4113 16.4139C82.6586 16.4139 82.906 16.4279 83.1534 16.4559C83.4054 16.4839 83.6597 16.5259 83.9164 16.5819L84.1545 14.9297C84.0098 14.8783 83.8091 14.834 83.5524 14.7967C83.3004 14.7593 83.039 14.7407 82.7683 14.7407ZM86.0867 22.4556H89.6151C90.1192 22.4556 90.5859 22.3926 91.0153 22.2665C91.4493 22.1359 91.8227 21.9445 92.1354 21.6925C92.4481 21.4451 92.6931 21.1371 92.8705 20.7684C93.0479 20.3997 93.1342 19.9726 93.1295 19.4872C93.1295 19.2119 93.0899 18.9505 93.0105 18.7031C92.9358 18.4511 92.8238 18.2224 92.6745 18.017C92.5298 17.8257 92.3501 17.6553 92.1354 17.506C91.9207 17.352 91.6617 17.2353 91.3583 17.1559V17.1419C91.5637 17.0579 91.7434 16.9646 91.8974 16.8619C92.0561 16.7546 92.1984 16.6309 92.3244 16.4909C92.5018 16.2995 92.6371 16.0801 92.7305 15.8328C92.8285 15.5808 92.8798 15.3101 92.8845 15.0207C92.8845 14.5446 92.7935 14.1339 92.6115 13.7885C92.4341 13.4385 92.1868 13.1515 91.8694 12.9274C91.552 12.7034 91.1763 12.5377 90.7422 12.4304C90.3082 12.3184 89.8438 12.2624 89.3491 12.2624H86.0867V22.4556ZM87.7809 17.849H89.7131C89.9885 17.8537 90.2335 17.8957 90.4482 17.975C90.6629 18.0497 90.8449 18.1571 90.9943 18.2971C91.1436 18.4371 91.2556 18.6074 91.3303 18.8081C91.405 19.0042 91.4423 19.2305 91.4423 19.4872C91.4423 19.7299 91.3957 19.9516 91.3023 20.1523C91.2136 20.3483 91.0853 20.514 90.9173 20.6494C90.7633 20.78 90.5766 20.8827 90.3572 20.9574C90.1378 21.0321 89.8951 21.0694 89.6291 21.0694H87.7809V17.849ZM87.7809 16.5679V13.6555H89.3701C89.6595 13.6602 89.9232 13.6952 90.1612 13.7605C90.3992 13.8212 90.5976 13.9216 90.7563 14.0616C90.8963 14.1736 91.0036 14.3183 91.0783 14.4956C91.1576 14.6683 91.1973 14.8737 91.1973 15.1117C91.1973 15.3357 91.1553 15.5341 91.0713 15.7068C90.9873 15.8795 90.8729 16.0265 90.7282 16.1478C90.5696 16.2832 90.3735 16.3859 90.1402 16.4559C89.9115 16.5259 89.6595 16.5632 89.3841 16.5679H87.7809ZM95.0758 11.7023V13.0955H97.47V21.0694H95.0758V22.4556H101.454V21.0694H99.1572V11.7023H95.0758ZM103.057 18.5981V18.7451C103.057 19.3005 103.136 19.8116 103.295 20.2783C103.453 20.745 103.684 21.1511 103.988 21.4965C104.287 21.8418 104.655 22.1125 105.094 22.3085C105.533 22.5046 106.03 22.6026 106.585 22.6026C107.136 22.6026 107.628 22.5046 108.062 22.3085C108.501 22.1125 108.87 21.8418 109.168 21.4965C109.467 21.1511 109.696 20.745 109.855 20.2783C110.013 19.8116 110.093 19.3005 110.093 18.7451V18.5981C110.093 18.0474 110.013 17.5387 109.855 17.0719C109.696 16.6005 109.467 16.1922 109.168 15.8468C108.865 15.5014 108.494 15.2307 108.055 15.0347C107.621 14.8387 107.127 14.7407 106.571 14.7407C106.016 14.7407 105.521 14.8387 105.087 15.0347C104.653 15.2307 104.287 15.5014 103.988 15.8468C103.684 16.1922 103.453 16.6005 103.295 17.0719C103.136 17.5387 103.057 18.0474 103.057 18.5981ZM104.73 18.7451V18.5981C104.73 18.2667 104.765 17.9494 104.835 17.646C104.91 17.3426 105.022 17.0766 105.171 16.8479C105.325 16.6192 105.516 16.4372 105.745 16.3018C105.978 16.1665 106.254 16.0988 106.571 16.0988C106.893 16.0988 107.169 16.1665 107.397 16.3018C107.631 16.4372 107.822 16.6192 107.971 16.8479C108.121 17.0766 108.233 17.3426 108.307 17.646C108.382 17.9494 108.419 18.2667 108.419 18.5981V18.7451C108.419 19.0858 108.382 19.4079 108.307 19.7112C108.237 20.0146 108.128 20.2806 107.978 20.5093C107.829 20.738 107.638 20.9201 107.404 21.0554C107.171 21.1861 106.898 21.2514 106.585 21.2514C106.263 21.2514 105.985 21.1861 105.752 21.0554C105.519 20.9201 105.325 20.738 105.171 20.5093C105.022 20.2806 104.91 20.0146 104.835 19.7112C104.765 19.4079 104.73 19.0858 104.73 18.7451ZM111.759 18.6121V18.7591C111.759 19.3052 111.829 19.8139 111.969 20.2853C112.113 20.752 112.319 21.1557 112.585 21.4965C112.846 21.8418 113.164 22.1125 113.537 22.3085C113.91 22.4999 114.33 22.5956 114.797 22.5956C115.054 22.5956 115.292 22.5676 115.511 22.5116C115.731 22.4602 115.931 22.3832 116.113 22.2805C116.235 22.2152 116.347 22.1382 116.449 22.0495C116.557 21.9608 116.659 21.8652 116.757 21.7625V22.2875C116.757 22.5722 116.715 22.8266 116.631 23.0506C116.552 23.2747 116.438 23.4637 116.288 23.6177C116.125 23.7764 115.927 23.8977 115.693 23.9817C115.464 24.0658 115.201 24.1078 114.902 24.1078C114.729 24.1078 114.559 24.0891 114.391 24.0518C114.223 24.0191 114.057 23.9654 113.894 23.8907C113.731 23.8161 113.57 23.718 113.411 23.5967C113.257 23.48 113.112 23.34 112.977 23.1767L112.186 24.1918C112.354 24.4158 112.554 24.6072 112.788 24.7658C113.021 24.9245 113.266 25.0529 113.523 25.1509C113.78 25.2489 114.036 25.3212 114.293 25.3679C114.55 25.4146 114.785 25.4379 115 25.4379C115.509 25.4379 115.973 25.3656 116.393 25.2209C116.818 25.0809 117.182 24.8755 117.485 24.6048C117.784 24.3295 118.015 23.9934 118.178 23.5967C118.347 23.2047 118.431 22.7543 118.431 22.2455V14.8807H116.911L116.841 15.6438C116.748 15.5318 116.648 15.4291 116.54 15.3357C116.433 15.2377 116.319 15.1537 116.197 15.0837C116.011 14.9717 115.803 14.8877 115.574 14.8317C115.345 14.771 115.091 14.7407 114.811 14.7407C114.34 14.7407 113.915 14.8363 113.537 15.0277C113.164 15.2144 112.844 15.4781 112.578 15.8188C112.316 16.1595 112.113 16.5679 111.969 17.0439C111.829 17.5153 111.759 18.038 111.759 18.6121ZM113.439 18.7591V18.6121C113.439 18.2714 113.474 17.9517 113.544 17.653C113.614 17.3496 113.724 17.0836 113.873 16.8549C114.018 16.6262 114.202 16.4465 114.426 16.3158C114.65 16.1852 114.918 16.1198 115.231 16.1198C115.408 16.1198 115.572 16.1408 115.721 16.1828C115.871 16.2202 116.006 16.2738 116.127 16.3438C116.263 16.4185 116.382 16.5119 116.484 16.6239C116.592 16.7359 116.683 16.8619 116.757 17.0019V20.3203C116.683 20.4557 116.596 20.5793 116.498 20.6914C116.4 20.8034 116.288 20.899 116.162 20.9784C116.036 21.0531 115.894 21.1114 115.735 21.1534C115.581 21.1954 115.408 21.2164 115.217 21.2164C114.909 21.2164 114.643 21.1534 114.419 21.0274C114.195 20.8967 114.011 20.717 113.866 20.4883C113.717 20.269 113.607 20.0099 113.537 19.7112C113.472 19.4125 113.439 19.0952 113.439 18.7591Z" fill="white"/>
</svg>
